# xmcd CD database file
#
# Track frame offsets:
#	150
#	19239
#	30844
#	41651
#	61047
#	72088
#	84086
#	95492
#	114171
#	127183
#	159057
#
# Disc length: 2390 seconds
#
# Revision: 1
# Processed by: cddbd v1.5PL3 Copyright (c) Steve Scherf et al.
# Submitted via: CDex 1.51
#
DISCID=7609540b
DTITLE=Helm van Hahm - Guitar
DYEAR=1998
DGENRE=Jazz
TTITLE0=Ohrwurm
TTITLE1=Zombies´s Groove
TTITLE2=At Home
TTITLE3=La Isla
TTITLE4=Sonnentanz
TTITLE5=Zam´s Zamba
TTITLE6=New Years Swing
TTITLE7=Für Dich
TTITLE8=Tears and Tumbles
TTITLE9=Von Machandelboom
TTITLE10=Hip and Hop (Bonus)
EXTD=YEAR: 1998
EXTT0=
EXTT1=
EXTT2=
EXTT3=
EXTT4=
EXTT5=
EXTT6=
EXTT7=
EXTT8=
EXTT9=
EXTT10=
PLAYORDER=
